# xmcd
#
# Track frame offsets:
#	150
#	18136
#	34706
#	46956
#	66172
#	80155
#	97100
#	114066
#	131234
#	145476
#	163626
#	176651
#	191255
#	209005
#
# Disc length: 2944 seconds
#
# Revision: 1
# Processed by: cddbd v1.5.2PL0 Copyright (c) Steve Scherf et al.
# Submitted via: audiograbber 1.83.01
#
DISCID=c50b7e0e
DTITLE=Eugene Doonan - When Music Ruled The Waves
DYEAR=2010
DGENRE=
TTITLE0=When Music Ruled The Waves
TTITLE1=Highlight Of My Life
TTITLE2=I Got The Outside
TTITLE3=Songs Of Donegal
TTITLE4=Mixing Blues And Booze
TTITLE5=Old Memories Of County Tyrone
TTITLE6=Leaving County Kilburn
TTITLE7=Big House In The Sky
TTITLE8=The Man With The Magic Beat
TTITLE9=Roads That Lead Me Home
TTITLE10=Our Lovely Western Shore
TTITLE11=Now I Know The Wrongs I've Done
TTITLE12=Farewell To Old Monaghan
TTITLE13=Keep 'er Lit
EXTD=
EXTT0=
EXTT1=
EXTT2=
EXTT3=
EXTT4=
EXTT5=
EXTT6=
EXTT7=
EXTT8=
EXTT9=
EXTT10=
EXTT11=
EXTT12=
EXTT13=
PLAYORDER=
